# xmcd
#
# Track frame offsets: 
#        150
#        14356
#        25146
#        35662
#        48780
#        57741
#        72556
#        85249
#        96398
#        106686
#        122568
#        134830
#        145907
#        160051
#        168903
#
# Disc length: 2369 seconds
#
# Revision: 0
# Processed by: cddbd v1.5.2PL0 Copyright (c) Steve Scherf et al.
# Submitted via: ExactAudioCopy v1.0b2
#
DISCID=d1093f0f
DTITLE=Yulie Ruth y Las Ruedas del Sur - El Country Vino Para Quedarse
DYEAR=2005
DGENRE=Country
TTITLE0=Chispas
TTITLE1=Amor a simple vista (o algo así)
TTITLE2=El Country vino para quedarse
TTITLE3=Juntos a la par
TTITLE4=Acá en Bernal
TTITLE5=Alegrías de pueblo
TTITLE6=Listo para ser tu hombre
TTITLE7=Fiebre galopante de Swing
TTITLE8=En buena ley
TTITLE9=Río revuelto
TTITLE10=Gracias Willie
TTITLE11=Un cielo claro y vos
TTITLE12=Muevemontañas
TTITLE13=Trato hecho
TTITLE14=Ven y ámame (Bonus track)
EXTD=
EXTT0=
EXTT1=
EXTT2=
EXTT3=
EXTT4=
EXTT5=
EXTT6=
EXTT7=
EXTT8=
EXTT9=
EXTT10=
EXTT11=
EXTT12=
EXTT13=
EXTT14=
PLAYORDER=
